<?xml version="1.0" encoding="utf-8"?>
<svg viewBox="0 0 128 128" xmlns="http://www.w3.org/2000/svg">
  <rect x="24" y="24" width="24" height="80" rx="4" ry="4" fill="#f2b600" />
  <rect x="80" y="24" width="24" height="80" rx="4" ry="4" fill="#f2b600" />
  <filter id="statusPausedQueuedWhiteBorder">
    <feMorphology in="SourceAlpha" operator="dilate" radius="1" result="expanded" />
    <feFlood flood-color="white" flood-opacity="0.8" result="flooded" />
    <feComposite in2="expanded" operator="in" result="border" />
    <feDropShadow in="border" dx="0" dy="0" stdDeviation="2" flood-color="white" flood-opacity="1" result="shadow" />
    <feComposite in="SourceGraphic" in2="shadow" operator="over" />
  </filter>
  <!-- 画布宽度 128，path 宽度 1024，缩放 0.05859375 得到 60，使其中心点定在 92 -->
  <g>
    <g transform="translate(62,0) scale(0.05859375)">
      <path d="M768 298.666667V170.666667h21.333333a21.333333 21.333333 0 0 0 21.333334-21.333334v-42.666666a21.333333 21.333333 0 0 0-21.333334-21.333334h-554.666666a21.333333 21.333333 0 0 0-21.333334 21.333334v42.666666a21.333333 21.333333 0 0 0 21.333334 21.333334H256v128a128 128 0 0 0 48.213333 101.546666L443.733333 512l-139.52 111.786667A128 128 0 0 0 256 725.333333v128h-21.333333a21.333333 21.333333 0 0 0-21.333334 21.333334v42.666666a21.333333 21.333333 0 0 0 21.333334 21.333334h554.666666a21.333333 21.333333 0 0 0 21.333334-21.333334v-42.666666a21.333333 21.333333 0 0 0-21.333334-21.333334H768v-128a128 128 0 0 0-48.213333-99.84L580.266667 512l139.52-111.786667A128 128 0 0 0 768 298.666667z m-85.333333-128v128H341.333333V170.666667z m-16.213334 519.68A42.666667 42.666667 0 0 1 682.666667 725.333333v42.666667H341.333333v-42.666667a42.666667 42.666667 0 0 1 16.213334-33.28L512 566.613333z" p-id="23433" fill="#2488EE">
        <animateTransform
          attributeName="transform"
          type="rotate"
          from="0 92 30"
          to="360 92 30"
          dur="1s"
          repeatCount="indefinite"
        />
      </path>  
    </g>
  </g>
</svg>
