<svg t="1758150017756" class="icon" viewBox="0 0 1024 1024" version="1.1" xmlns="http://www.w3.org/2000/svg" p-id="3794" xmlns:xlink="http://www.w3.org/1999/xlink">
    <path d="M99.555556 113.777778m170.666666 0l483.555556 0q170.666667 0 170.666666 170.666666l0 483.555556q0 170.666667-170.666666 170.666667l-483.555556 0q-170.666667 0-170.666666-170.666667l0-483.555556q0-170.666667 170.666666-170.666666Z" fill="hwb(var(--bg95) / 0.6)" p-id="3795" desc="外壳"></path>
    <path d="M99.555556 113.777778m170.666666 0l483.555556 0q170.666667 0 170.666666 170.666666l0 312.888889q0 170.666667-170.666666 170.666667l-483.555556 0q-170.666667 0-170.666666-170.666667l0-312.888889q0-170.666667 170.666666-170.666666Z" fill="hwb(var(--bg98) / 0.6)" p-id="3796" desc="顶框"></path>
    <path d="M184.888889 184.888889m113.777778 0l426.666666 0q113.777778 0 113.777778 113.777778l0 256q0 113.777778-113.777778 113.777777l-426.666666 0q-113.777778 0-113.777778-113.777777l0-256q0-113.777778 113.777778-113.777778Z" fill="hwb(var(--bg90) / 0.6)" p-id="3797" desc="内板"></path>
    <path d="M184.888889 341.333333m113.777778 0l426.666666 0q113.777778 0 113.777778 113.777778l0 99.555556q0 113.777778-113.777778 113.777777l-426.666666 0q-113.777778 0-113.777778-113.777777l0-99.555556q0-113.777778 113.777778-113.777778Z" fill="hwb(var(--bg93) / 0.6)" p-id="3798" desc="底板"></path>
    <path d="M256 384h512v42.666667H256z" fill="hwb(25 15% 40%)" p-id="3799" desc="箭头阴影"></path>
    <path d="M398.222222 369.777778h227.555556v298.666666H398.222222z" fill="hwb(25 5% 5%)" p-id="3800" desc="箭身"></path>
    <path d="M512 99.555556l256 284.444444H256z" fill="hwb(25 5% 5%)" p-id="3801" desc="上箭头"></path>
</svg>